<?xml version="1.0" encoding="utf-8"?>
<!-- Generator: Adobe Illustrator 19.0.0, SVG Export Plug-In . SVG Version: 6.00 Build 0)  -->
<svg version="1.1" id="black" xmlns="http://www.w3.org/2000/svg" xmlns:xlink="http://www.w3.org/1999/xlink" x="0px" y="0px"
	 viewBox="0 0 770.9 124.7" style="enable-background:new 0 0 770.9 124.7;" xml:space="preserve">
<style type="text/css">
	.st0{fill:#FFFFFF;}
	.st1{fill:#00B4D3;}
</style>
<g>
	<g>
		<g>
			<path class="st0" d="M86,97.3l9.2,22.8l-5.7,2.2l-7.7-18.8H13.2l-7.5,18.8L0,120l9.2-22.8H86z"/>
		</g>
		<g>
			<path class="st0" d="M197.6,119.2l-5.3,3.1l-20.7-50.7h-49.7v50.7h-6.2V65.4h59.6L197.6,119.2z"/>
		</g>
		<g>
			<rect x="246.6" y="27.7" class="st0" width="6.2" height="94.6"/>
		</g>
		<g>
			<path class="st0" d="M312,2.4h6.2v119.9H312V2.4z"/>
		</g>
		<g>
			<path class="st0" d="M350,88.5c0,20.7,19.2,30,36.8,30c18.3,0,37-7.5,37-28.1c0-11-5.3-21.8-23.1-28.6
				C379.3,53.6,353,49.3,353,27.2C353,9.2,370.1,0,386.9,0c16.4,0,32.7,8.9,32.7,27.2h-6.2c0-14.4-13.5-21.6-27.2-21.6
				c-13.5,0-27.1,7.2-27.1,21.6c0,17.1,22.4,21.2,43.3,29.1C424,64.6,430,76.7,430,90.2c0,23.5-19.4,34.4-43.2,34.4
				c-18.3,0-43-9.6-43-36.1H350z"/>
		</g>
		<g>
			<path class="st0" d="M442.9,2.4h76.7v6.2h-35.3v113.7h-6.2V8.6h-35.3V2.4z"/>
		</g>
	</g>
	<g>
		<g>
			<path class="st1" d="M169.2,2.4c12.2,0,22.1,9.9,22.1,22.1c0,11.8-9.9,21.9-22.1,21.9h-53.4v-44H169.2z M121.9,8.6v31.7h47.3
				c8.7,0,15.9-7.2,15.9-15.8c0-8.7-7.2-15.9-15.9-15.9H121.9z"/>
		</g>
		<g>
			<rect x="211.3" y="2.4" class="st1" width="76.7" height="6.2"/>
		</g>
		<g>
			<path class="st1" d="M48.5,2.4l30,75.9H16.7l30-75.9H48.5z M25.8,72.1h43.5l-21.8-56L25.8,72.1z"/>
		</g>
	</g>
</g>
<g>
	<path class="st0" d="M578.9,29.5v1.1h-11c-3.6,0-5.9-2.2-5.9-5.7V9.8c0-3.5,2.2-5.7,5.9-5.7h11v0.8l-0.4,0.4h-10.6
		c-2.9,0-4.6,1.7-4.6,4.6V25c0,2.9,1.7,4.6,4.6,4.6H578.9z"/>
	<path class="st0" d="M591.3,30.7H590V5.2H581V4.1h19.2v0.8l-0.4,0.4h-8.6V30.7z"/>
	<path class="st0" d="M603.3,4.1l9.9,19.4h0.2l8.2-19.4h1.1v0.8l-9.1,21.3c-1.3,3-3.2,4.9-6.3,4.9h-1.9v-1.1h1.9
		c2.5,0,4-1.5,4.9-3.8l0.4-1L602.1,4.8V4.1H603.3z"/>
	<path class="st0" d="M644.3,4.1v25.5h3.8V36H647l-0.2-5.3H624l-0.2,5.3h-1.1v-6.5h1.9c0.5-0.4,1-0.8,1.4-1.3
		c0.7-0.8,1.5-1.9,1.6-3.3l1.9-20.9H644.3z M628.9,25c-0.1,1.3-0.8,2.4-1.4,3.2c-0.4,0.5-0.8,0.8-1.3,1.2v0.2H643V5.2h-12.4
		L628.9,25z"/>
	<path class="st0" d="M655.3,30.7h-1.7V4.1h1.3V25l-0.2,4h0.2l14.8-24.9h1.7v26.6h-1.3V9.8l0.2-4h-0.2L655.3,30.7z"/>
	<path class="st0" d="M695,30.7v-11h-7.8l-7.8,11h-1.1v-0.8l7.4-10.3h-1.1c-3.6,0-5.9-2.2-5.9-5.7V9.8c0-3.5,2.2-5.7,5.9-5.7h11.8
		v26.6H695z M680,14c0,2.9,1.7,4.6,4.6,4.6H695V5.2h-10.5c-2.9,0-4.6,1.7-4.6,4.6V14z"/>
	<path class="st0" d="M580.8,49.7v25.5h3.8v6.5h-1.1l-0.2-5.3h-22.8l-0.2,5.3h-1.1v-6.5h1.9c0.5-0.4,1-0.8,1.4-1.3
		c0.7-0.8,1.5-1.9,1.6-3.3l1.9-20.9H580.8z M565.4,70.6c-0.1,1.3-0.8,2.4-1.4,3.2c-0.4,0.5-0.8,0.8-1.3,1.2v0.2h16.7V50.8h-12.4
		L565.4,70.6z"/>
	<path class="st0" d="M591.9,76.3h-1.7V49.7h1.3v20.9l-0.2,4h0.2l14.8-24.9h1.7v26.6h-1.3V55.4l0.2-4h-0.2L591.9,76.3z"/>
	<path class="st0" d="M613.9,50.8l-0.4-0.4v-0.8h10.8c3.6,0,5.9,2.2,5.9,5.7v2.1c0,2.1-0.9,3.3-1.8,4c-0.5,0.4-1.1,0.7-1.8,0.9v0.2
		c0.7,0.2,1.4,0.5,2,0.9c1,0.7,2,2.1,2,4.2v2.8c0,3.5-2.2,5.7-5.9,5.7h-11.6v-1.1h11.6c2.9,0,4.6-1.7,4.6-4.6v-2.8
		c0-2.9-1.7-4.6-4.6-4.6h-6.7V62h6.4c2.9,0,4.4-1.7,4.4-4.6v-2.1c0-2.9-1.7-4.6-4.6-4.6H613.9z"/>
	<path class="st0" d="M651.7,68.7h-13.1l-2.9,7.6h-1.1v-0.8l9.7-25.8h1.7l9.7,25.8v0.8h-1.1L651.7,68.7z M639,67.5h12.4l-6.1-16.3
		h-0.2L639,67.5z"/>
	<path class="st0" d="M662.9,76.3h-1.7V49.7h1.3v20.9l-0.2,4h0.2l14.8-24.9h1.7v26.6h-1.3V55.4l0.2-4h-0.2L662.9,76.3z M668.1,47
		c-1.7,0-3.2-1.5-3.2-3.2v-1.3h1.1v1.3c0,1.2,0.9,2.1,2.1,2.1h4.2c1.2,0,2.1-0.9,2.1-2.1v-1.3h1.1v1.3c0,1.7-1.5,3.2-3.2,3.2H668.1z
		"/>
	<path class="st0" d="M688.8,49.7v12.5H704V49.7h1.3v26.6H704V63.4h-15.2v12.9h-1.3V49.7H688.8z"/>
	<path class="st0" d="M727.9,68.7h-13.1l-2.9,7.6h-1.1v-0.8l9.7-25.8h1.7l9.7,25.8v0.8h-1.1L727.9,68.7z M715.2,67.5h12.4l-6.1-16.3
		h-0.2L715.2,67.5z"/>
	<path class="st0" d="M564.7,121.9H563V95.3h1.3v20.9l-0.2,4h0.2l14.8-24.9h1.7v26.6h-1.3V101l0.2-4h-0.2L564.7,121.9z"/>
	<path class="st0" d="M611.2,95.3c3.6,0,5.9,2.2,5.9,5.7v5.7c0,3.5-2.2,5.7-5.9,5.7h-10.1v9.5h-1.3V95.3H611.2z M601.2,96.4v14.8
		h10.1c2.9,0,4.6-1.7,4.6-4.6V101c0-2.9-1.7-4.6-4.6-4.6H601.2z"/>
	<path class="st0" d="M624,95.3h16.5V96l-0.4,0.4h-14.8v11.4h12.2v1.1h-12.2v11.8h15.2v1.1H624V95.3z"/>
	<path class="st0" d="M659.1,118.5l-9.5-21.7h-0.2l-3.4,25.1h-1.1v-0.8l3.6-25.8h1.7l9.7,21.9h0.2l9.7-21.9h1.7l3.6,25.8v0.8H674
		l-3.4-25.1h-0.2l-9.5,21.7H659.1z"/>
	<path class="st0" d="M700.2,116.6c0,3.5-2.2,5.7-5.9,5.7h-7c-3.6,0-5.9-2.2-5.9-5.7v-16c0-3.5,2.2-5.7,5.9-5.7h7
		c3.6,0,5.9,2.2,5.9,5.7V116.6z M694.3,121.1c2.9,0,4.6-1.7,4.6-4.6v-16c0-2.9-1.7-4.6-4.6-4.6h-7c-2.9,0-4.6,1.7-4.6,4.6v16
		c0,2.9,1.7,4.6,4.6,4.6H694.3z"/>
	<path class="st0" d="M708.9,95.3v12.5h15.2V95.3h1.3v26.6h-1.3V109h-15.2v12.9h-1.3V95.3H708.9z"/>
	<path class="st0" d="M740.7,121.9h-1.3V96.4h-8.9v-1.1h19.2V96l-0.4,0.4h-8.6V121.9z"/>
	<path class="st0" d="M766.9,114.3h-13.1l-2.9,7.6h-1.1v-0.8l9.7-25.8h1.7l9.7,25.8v0.8h-1.1L766.9,114.3z M754.1,113.2h12.4
		l-6.1-16.3h-0.2L754.1,113.2z"/>
</g>
<g>
	<rect x="539.3" y="2.4" class="st0" width="0.2" height="119.9"/>
</g>
</svg>
